<svg xmlns="http://www.w3.org/2000/svg">
  <symbol id="search" viewBox="0 0 20 20">
    <path d="M502.409,421.8L389.695,309.135c16.725-29.955,26.354-64.382,26.354-101.112
	C416.048,93.334,322.735,0,208.046,0C93.334,0,0,93.334,0,208.023c0,114.69,93.333,207.974,208.046,207.974
	c36.83,0,71.382-9.676,101.388-26.553L422.12,502.132c12.828,12.826,33.832,12.826,46.656,0l33.58-33.703
	C515.206,455.604,515.206,434.599,502.409,421.8z M64.004,208.023c0-79.384,64.607-144.017,144.042-144.017
	c79.407,0,143.99,64.633,143.99,144.017c0,79.434-64.583,143.965-143.99,143.965C128.612,351.988,64.004,287.457,64.004,208.023z"/>
  </symbol>
</svg>
